<?xml version="1.0" encoding="utf-8"?>
<!-- Generator: Adobe Illustrator 28.4.1, SVG Export Plug-In . SVG Version: 6.00 Build 0)  -->
<svg version="1.1" id="AW" xmlns="http://www.w3.org/2000/svg" xmlns:xlink="http://www.w3.org/1999/xlink" x="0px" y="0px"
	 width="535.6px" height="109.5px" viewBox="0 0 535.6 109.5" style="enable-background:new 0 0 535.6 109.5;" xml:space="preserve"
	>
<style type="text/css">
	.st0{fill:#003778;}
	.st1{fill:#0094FF;}
	.st2{fill:#003778;}
</style>
<g>
	<g>
		<path class="st2" d="M125.9,34.6c-1.3-0.7-2.4-1.7-3.1-3c-0.7-1.3-1.1-2.8-1.1-4.5v-7.3c0-1.7,0.4-3.2,1.1-4.5
			c0.7-1.3,1.8-2.3,3.1-3c1.3-0.7,2.9-1.1,4.7-1.1c1.8,0,3.4,0.4,4.7,1.1c1.3,0.7,2.4,1.7,3.1,3s1.1,2.8,1.1,4.5v7.3
			c0,1.7-0.4,3.2-1.1,4.5c-0.7,1.3-1.8,2.3-3.1,3c-1.3,0.7-2.9,1.1-4.7,1.1C128.8,35.7,127.2,35.3,125.9,34.6z M133.6,30.4
			c0.8-0.8,1.2-1.8,1.2-3.2v-7.5c0-1.3-0.4-2.4-1.1-3.2c-0.8-0.8-1.8-1.2-3-1.2c-1.2,0-2.2,0.4-3,1.2c-0.8,0.8-1.1,1.9-1.1,3.2v7.5
			c0,1.3,0.4,2.4,1.1,3.2c0.8,0.8,1.8,1.2,3,1.2C131.8,31.6,132.8,31.2,133.6,30.4z"/>
		<path class="st2" d="M157,12.4c1.1,0.6,2,1.5,2.6,2.6c0.6,1.1,0.9,2.4,0.9,3.9c0,1.4-0.3,2.7-1,3.8c-0.6,1.1-1.6,1.9-2.7,2.5
			c-1.2,0.6-2.5,0.9-4,0.9H148c-0.1,0-0.2,0.1-0.2,0.2v8.7c0,0.1,0,0.2-0.1,0.3c-0.1,0.1-0.2,0.1-0.3,0.1h-4c-0.1,0-0.2,0-0.3-0.1
			c-0.1-0.1-0.1-0.2-0.1-0.3v-23c0-0.1,0-0.2,0.1-0.3c0.1-0.1,0.2-0.1,0.3-0.1h9.6C154.5,11.5,155.8,11.8,157,12.4z M154.8,21.3
			c0.6-0.6,1-1.4,1-2.4c0-1-0.3-1.8-1-2.4c-0.6-0.6-1.5-0.9-2.5-0.9H148c-0.1,0-0.2,0.1-0.2,0.2v6.3c0,0.1,0.1,0.2,0.2,0.2h4.3
			C153.3,22.2,154.2,21.9,154.8,21.3z"/>
		<path class="st2" d="M179.9,15.5c-0.1,0.1-0.2,0.1-0.3,0.1h-11.2c-0.1,0-0.2,0.1-0.2,0.2v5.3c0,0.1,0.1,0.2,0.2,0.2h7.3
			c0.1,0,0.2,0,0.3,0.1c0.1,0.1,0.1,0.2,0.1,0.3v3.3c0,0.1,0,0.2-0.1,0.3c-0.1,0.1-0.2,0.1-0.3,0.1h-7.3c-0.1,0-0.2,0.1-0.2,0.2V31
			c0,0.1,0.1,0.2,0.2,0.2h11.2c0.1,0,0.2,0,0.3,0.1c0.1,0.1,0.1,0.2,0.1,0.3v3.3c0,0.1,0,0.2-0.1,0.3c-0.1,0.1-0.2,0.1-0.3,0.1
			h-15.7c-0.1,0-0.2,0-0.3-0.1c-0.1-0.1-0.1-0.2-0.1-0.3v-23c0-0.1,0-0.2,0.1-0.3c0.1-0.1,0.2-0.1,0.3-0.1h15.7c0.1,0,0.2,0,0.3,0.1
			c0.1,0.1,0.1,0.2,0.1,0.3v3.3C180,15.3,180,15.4,179.9,15.5z"/>
		<path class="st2" d="M197.1,11.6c0.1-0.1,0.2-0.1,0.3-0.1h4c0.1,0,0.2,0,0.3,0.1c0.1,0.1,0.1,0.2,0.1,0.3v23c0,0.1,0,0.2-0.1,0.3
			c-0.1,0.1-0.2,0.1-0.3,0.1h-3.8c-0.2,0-0.4-0.1-0.5-0.3l-8.8-14.6c0-0.1-0.1-0.1-0.1-0.1c0,0-0.1,0.1-0.1,0.2l0.1,14.3
			c0,0.1,0,0.2-0.1,0.3c-0.1,0.1-0.2,0.1-0.3,0.1h-4c-0.1,0-0.2,0-0.3-0.1c-0.1-0.1-0.1-0.2-0.1-0.3v-23c0-0.1,0-0.2,0.1-0.3
			c0.1-0.1,0.2-0.1,0.3-0.1h3.8c0.2,0,0.4,0.1,0.5,0.3l8.8,14.5c0,0.1,0.1,0.1,0.1,0.1c0,0,0.1-0.1,0.1-0.2l0-14.3
			C197,11.8,197,11.7,197.1,11.6z"/>
		<path class="st2" d="M218.6,35l-7-23l0-0.1c0-0.2,0.1-0.3,0.4-0.3h4.3c0.2,0,0.4,0.1,0.5,0.3l4.5,16.6c0,0.1,0.1,0.1,0.1,0.1
			c0,0,0.1,0,0.1-0.1l4.5-16.6c0.1-0.2,0.2-0.3,0.5-0.3h4.2c0.1,0,0.2,0,0.3,0.1c0.1,0.1,0.1,0.2,0,0.3l-7.1,23
			c-0.1,0.2-0.2,0.3-0.4,0.3h-4.3C218.8,35.3,218.7,35.2,218.6,35z"/>
		<path class="st2" d="M236.6,34.6c-1.3-0.7-2.4-1.7-3.1-3c-0.7-1.3-1.1-2.8-1.1-4.5v-7.3c0-1.7,0.4-3.2,1.1-4.5s1.8-2.3,3.1-3
			c1.3-0.7,2.9-1.1,4.7-1.1c1.8,0,3.4,0.4,4.7,1.1c1.3,0.7,2.4,1.7,3.1,3c0.7,1.3,1.1,2.8,1.1,4.5v7.3c0,1.7-0.4,3.2-1.1,4.5
			c-0.7,1.3-1.8,2.3-3.1,3c-1.3,0.7-2.9,1.1-4.7,1.1C239.5,35.7,237.9,35.3,236.6,34.6L236.6,34.6z M244.3,30.4
			c0.8-0.8,1.2-1.8,1.2-3.2v-7.5c0-1.3-0.4-2.4-1.1-3.2c-0.8-0.8-1.8-1.2-3-1.2c-1.2,0-2.2,0.4-3,1.2c-0.8,0.8-1.1,1.9-1.1,3.2v7.5
			c0,1.3,0.4,2.4,1.1,3.2c0.8,0.8,1.8,1.2,3,1.2C242.5,31.6,243.5,31.2,244.3,30.4L244.3,30.4z"/>
		<path class="st2" d="M254,35.2c-0.1-0.1-0.1-0.2-0.1-0.3v-23c0-0.1,0-0.2,0.1-0.3c0.1-0.1,0.2-0.1,0.3-0.1h4c0.1,0,0.2,0,0.3,0.1
			c0.1,0.1,0.1,0.2,0.1,0.3v23c0,0.1,0,0.2-0.1,0.3c-0.1,0.1-0.2,0.1-0.3,0.1h-4C254.2,35.3,254.1,35.3,254,35.2z"/>
		<path class="st2" d="M265.7,34.6c-1.3-0.7-2.4-1.7-3.1-2.9s-1.1-2.7-1.1-4.3v-7.9c0-1.6,0.4-3.1,1.1-4.3c0.7-1.2,1.8-2.2,3.1-2.9
			c1.3-0.7,2.9-1,4.7-1c1.7,0,3.3,0.3,4.6,1s2.4,1.6,3.1,2.8s1.1,2.6,1.1,4.1c0,0.2-0.1,0.3-0.4,0.4l-4,0.2h-0.1
			c-0.2,0-0.3-0.1-0.3-0.4c0-1.2-0.4-2.2-1.1-2.9c-0.7-0.7-1.7-1.1-2.9-1.1c-1.2,0-2.2,0.4-2.9,1.1c-0.7,0.7-1.1,1.7-1.1,2.9v8.2
			c0,1.2,0.4,2.1,1.1,2.9c0.7,0.7,1.7,1.1,2.9,1.1c1.2,0,2.2-0.4,2.9-1.1c0.7-0.7,1.1-1.7,1.1-2.9c0-0.2,0.1-0.4,0.4-0.4l4,0.2
			c0.1,0,0.2,0,0.3,0.1c0.1,0.1,0.1,0.1,0.1,0.2c0,1.6-0.4,2.9-1.1,4.1c-0.7,1.2-1.8,2.1-3.1,2.8c-1.3,0.7-2.9,1-4.6,1
			C268.6,35.6,267,35.2,265.7,34.6z"/>
		<path class="st2" d="M299.1,15.5c-0.1,0.1-0.2,0.1-0.3,0.1h-11.2c-0.1,0-0.2,0.1-0.2,0.2v5.3c0,0.1,0.1,0.2,0.2,0.2h7.3
			c0.1,0,0.2,0,0.3,0.1c0.1,0.1,0.1,0.2,0.1,0.3v3.3c0,0.1,0,0.2-0.1,0.3c-0.1,0.1-0.2,0.1-0.3,0.1h-7.3c-0.1,0-0.2,0.1-0.2,0.2V31
			c0,0.1,0.1,0.2,0.2,0.2h11.2c0.1,0,0.2,0,0.3,0.1c0.1,0.1,0.1,0.2,0.1,0.3v3.3c0,0.1,0,0.2-0.1,0.3c-0.1,0.1-0.2,0.1-0.3,0.1
			h-15.7c-0.1,0-0.2,0-0.3-0.1c-0.1-0.1-0.1-0.2-0.1-0.3v-23c0-0.1,0-0.2,0.1-0.3c0.1-0.1,0.2-0.1,0.3-0.1h15.7c0.1,0,0.2,0,0.3,0.1
			c0.1,0.1,0.1,0.2,0.1,0.3v3.3C299.2,15.3,299.1,15.4,299.1,15.5z"/>
		<path class="st2" d="M122.9,86.1c-0.1-0.1-0.2-0.3-0.2-0.5V43.7c0-0.2,0.1-0.4,0.2-0.5c0.1-0.1,0.3-0.2,0.5-0.2h7.3
			c0.2,0,0.4,0.1,0.5,0.2c0.1,0.1,0.2,0.3,0.2,0.5v41.9c0,0.2-0.1,0.4-0.2,0.5c-0.1,0.1-0.3,0.2-0.5,0.2h-7.3
			C123.3,86.3,123.1,86.2,122.9,86.1z"/>
		<path class="st2" d="M154.9,43.1c0.1-0.1,0.3-0.2,0.5-0.2h7.2c0.2,0,0.4,0.1,0.5,0.2c0.1,0.1,0.2,0.3,0.2,0.5v41.9
			c0,0.2-0.1,0.4-0.2,0.5c-0.1,0.1-0.3,0.2-0.5,0.2h-8.2c-0.4,0-0.7-0.2-0.8-0.6l-7.7-24c0-0.1-0.1-0.2-0.2-0.2
			c-0.1,0-0.2,0.1-0.2,0.2l0.1,23.8c0,0.2-0.1,0.4-0.2,0.5c-0.1,0.1-0.3,0.2-0.5,0.2h-7.2c-0.2,0-0.4-0.1-0.5-0.2
			c-0.1-0.1-0.2-0.3-0.2-0.5V43.7c0-0.2,0.1-0.4,0.2-0.5c0.1-0.1,0.3-0.2,0.5-0.2h8.1c0.4,0,0.7,0.2,0.8,0.6l7.8,24
			c0,0.1,0.1,0.2,0.2,0.2c0.1,0,0.2-0.1,0.2-0.2l-0.1-23.8C154.7,43.5,154.8,43.3,154.9,43.1z"/>
		<path class="st2" d="M193.4,43.1c0.1,0.1,0.2,0.3,0.2,0.5v6c0,0.2-0.1,0.4-0.2,0.5c-0.1,0.1-0.3,0.2-0.5,0.2h-7.8
			c-0.2,0-0.3,0.1-0.3,0.3v34.8c0,0.2-0.1,0.4-0.2,0.5c-0.1,0.1-0.3,0.2-0.5,0.2h-7.3c-0.2,0-0.4-0.1-0.5-0.2
			c-0.1-0.1-0.2-0.3-0.2-0.5V50.7c0-0.2-0.1-0.3-0.3-0.3h-7.4c-0.2,0-0.4-0.1-0.5-0.2c-0.1-0.1-0.2-0.3-0.2-0.5v-6
			c0-0.2,0.1-0.4,0.2-0.5c0.1-0.1,0.3-0.2,0.5-0.2h24.6C193.1,42.9,193.3,43,193.4,43.1z"/>
		<path class="st2" d="M218.9,50.2c-0.1,0.1-0.3,0.2-0.5,0.2h-13c-0.2,0-0.3,0.1-0.3,0.3v9.8c0,0.2,0.1,0.3,0.3,0.3h7.4
			c0.2,0,0.4,0.1,0.5,0.2c0.1,0.1,0.2,0.3,0.2,0.5v6c0,0.2-0.1,0.4-0.2,0.5c-0.1,0.1-0.3,0.2-0.5,0.2h-7.4c-0.2,0-0.3,0.1-0.3,0.3
			v9.9c0,0.2,0.1,0.3,0.3,0.3h13c0.2,0,0.4,0.1,0.5,0.2c0.1,0.1,0.2,0.3,0.2,0.5v6c0,0.2-0.1,0.4-0.2,0.5c-0.1,0.1-0.3,0.2-0.5,0.2
			h-21.3c-0.2,0-0.4-0.1-0.5-0.2c-0.1-0.1-0.2-0.3-0.2-0.5V43.7c0-0.2,0.1-0.4,0.2-0.5c0.1-0.1,0.3-0.2,0.5-0.2h21.3
			c0.2,0,0.4,0.1,0.5,0.2c0.1,0.1,0.2,0.3,0.2,0.5v6C219.1,49.9,219,50.1,218.9,50.2z"/>
		<path class="st2" d="M239.1,85.7l-4.8-17.1c-0.1-0.2-0.2-0.2-0.3-0.2h-2.1c-0.2,0-0.3,0.1-0.3,0.3v16.9c0,0.2-0.1,0.4-0.2,0.5
			c-0.1,0.1-0.3,0.2-0.5,0.2h-7.3c-0.2,0-0.4-0.1-0.5-0.2c-0.1-0.1-0.2-0.3-0.2-0.5V43.7c0-0.2,0.1-0.4,0.2-0.5
			c0.1-0.1,0.3-0.2,0.5-0.2h12.5c2.3,0,4.3,0.5,6.1,1.6c1.8,1.1,3.2,2.6,4.1,4.6c1,2,1.5,4.3,1.5,6.8c0,2.4-0.5,4.6-1.4,6.4
			c-0.9,1.9-2.2,3.3-3.9,4.3c-0.1,0-0.1,0.1-0.2,0.2c0,0.1,0,0.1,0,0.2l5.7,18.3l0.1,0.2c0,0.4-0.2,0.6-0.7,0.6H240
			C239.5,86.3,239.2,86.1,239.1,85.7L239.1,85.7z M231.6,50.7v10.6c0,0.2,0.1,0.3,0.3,0.3h2.8c1.3,0,2.3-0.5,3.1-1.5
			c0.8-1,1.2-2.4,1.2-4.1c0-1.7-0.4-3.1-1.2-4.1c-0.8-1-1.9-1.5-3.1-1.5h-2.8C231.7,50.4,231.6,50.5,231.6,50.7z"/>
		<path class="st2" d="M255.5,83.5c-2.3-2.2-3.4-5.2-3.4-8.9V54.7c0-3.7,1.1-6.7,3.4-8.9c2.3-2.2,5.3-3.3,9.1-3.3s6.9,1.1,9.1,3.3
			s3.4,5.2,3.4,8.9v19.8c0,3.7-1.1,6.7-3.4,8.9s-5.3,3.3-9.1,3.3S257.7,85.7,255.5,83.5z M267.4,78.1c0.7-0.8,1.1-1.9,1.1-3.2V54.3
			c0-1.3-0.4-2.4-1.1-3.2c-0.7-0.8-1.6-1.2-2.8-1.2s-2.1,0.4-2.8,1.2s-1,1.9-1,3.2v20.6c0,1.3,0.3,2.4,1,3.2
			c0.7,0.8,1.6,1.2,2.8,1.2S266.7,78.9,267.4,78.1z"/>
		<path class="st2" d="M301.3,44.5c1.8,1.1,3.2,2.7,4.1,4.7c1,2,1.5,4.3,1.5,6.9c0,3.8-1,6.9-3.1,9.2c-2.1,2.3-4.8,3.5-8.1,3.5H291
			c-0.2,0-0.3,0.1-0.3,0.3v16.5c0,0.2-0.1,0.4-0.2,0.5c-0.1,0.1-0.3,0.2-0.5,0.2h-7.3c-0.2,0-0.4-0.1-0.5-0.2
			c-0.1-0.1-0.2-0.3-0.2-0.5v-42c0-0.2,0.1-0.4,0.2-0.5c0.1-0.1,0.3-0.2,0.5-0.2h12.5C297.5,42.9,299.5,43.4,301.3,44.5z
			 M296.9,60.4c0.8-1,1.2-2.4,1.2-4.2c0-1.8-0.4-3.2-1.2-4.3c-0.8-1-1.9-1.5-3.2-1.5H291c-0.2,0-0.3,0.1-0.3,0.3v10.9
			c0,0.2,0.1,0.3,0.3,0.3h2.7C295,62,296.1,61.4,296.9,60.4z"/>
		<path class="st2" d="M333.4,50.2c-0.1,0.1-0.3,0.2-0.5,0.2h-13c-0.2,0-0.3,0.1-0.3,0.3v9.8c0,0.2,0.1,0.3,0.3,0.3h7.4
			c0.2,0,0.4,0.1,0.5,0.2c0.1,0.1,0.2,0.3,0.2,0.5v6c0,0.2-0.1,0.4-0.2,0.5c-0.1,0.1-0.3,0.2-0.5,0.2h-7.4c-0.2,0-0.3,0.1-0.3,0.3
			v9.9c0,0.2,0.1,0.3,0.3,0.3h13c0.2,0,0.4,0.1,0.5,0.2c0.1,0.1,0.2,0.3,0.2,0.5v6c0,0.2-0.1,0.4-0.2,0.5c-0.1,0.1-0.3,0.2-0.5,0.2
			h-21.3c-0.2,0-0.4-0.1-0.5-0.2c-0.1-0.1-0.2-0.3-0.2-0.5V43.7c0-0.2,0.1-0.4,0.2-0.5c0.1-0.1,0.3-0.2,0.5-0.2h21.3
			c0.2,0,0.4,0.1,0.5,0.2c0.1,0.1,0.2,0.3,0.2,0.5v6C333.6,49.9,333.5,50.1,333.4,50.2z"/>
		<path class="st2" d="M354.2,85.7l-4.8-17.1c-0.1-0.2-0.2-0.2-0.3-0.2H347c-0.2,0-0.3,0.1-0.3,0.3v16.9c0,0.2-0.1,0.4-0.2,0.5
			c-0.1,0.1-0.3,0.2-0.5,0.2h-7.3c-0.2,0-0.4-0.1-0.5-0.2c-0.1-0.1-0.2-0.3-0.2-0.5V43.7c0-0.2,0.1-0.4,0.2-0.5
			c0.1-0.1,0.3-0.2,0.5-0.2h12.5c2.3,0,4.3,0.5,6.1,1.6c1.8,1.1,3.2,2.6,4.1,4.6c1,2,1.5,4.3,1.5,6.8c0,2.4-0.5,4.6-1.4,6.4
			c-0.9,1.9-2.2,3.3-3.9,4.3c-0.1,0-0.1,0.1-0.2,0.2c0,0.1,0,0.1,0,0.2l5.7,18.3l0.1,0.2c0,0.4-0.2,0.6-0.7,0.6h-7.4
			C354.6,86.3,354.4,86.1,354.2,85.7z M346.7,50.7v10.6c0,0.2,0.1,0.3,0.3,0.3h2.8c1.3,0,2.3-0.5,3.1-1.5c0.8-1,1.2-2.4,1.2-4.1
			c0-1.7-0.4-3.1-1.2-4.1c-0.8-1-1.9-1.5-3.1-1.5H347C346.8,50.4,346.7,50.5,346.7,50.7z"/>
		<path class="st2" d="M384.9,85.6l-1-6c0-0.2-0.1-0.3-0.4-0.3h-7.9c-0.2,0-0.4,0.1-0.4,0.3l-1,6c0,0.5-0.3,0.7-0.8,0.7h-7.3
			c-0.5,0-0.7-0.3-0.6-0.8l9.1-41.9c0.1-0.5,0.4-0.7,0.8-0.7h8.4c0.5,0,0.7,0.2,0.8,0.7l9.1,41.9l0.1,0.2c0,0.4-0.2,0.6-0.7,0.6
			h-7.4C385.2,86.3,385,86.1,384.9,85.6z M376.8,72.6h5.6c0.2,0,0.3-0.1,0.2-0.3l-2.9-16.9c0-0.1-0.1-0.2-0.2-0.2
			c-0.1,0-0.1,0.1-0.2,0.2l-2.8,16.9C376.5,72.5,376.6,72.6,376.8,72.6z"/>
		<path class="st2" d="M418.8,83.2c-2.3,2.1-5.3,3.1-9,3.1h-11.7c-0.2,0-0.4-0.1-0.5-0.2c-0.1-0.1-0.2-0.3-0.2-0.5V43.7
			c0-0.2,0.1-0.4,0.2-0.5c0.1-0.1,0.3-0.2,0.5-0.2h10.4c4.1,0,7.4,1,9.7,3c2.3,2,3.5,4.9,3.5,8.9c0,4.1-1.4,7.1-4.2,8.9
			c-0.2,0.1-0.2,0.2-0.1,0.4c3.3,2.3,4.9,5.7,4.9,10.3C422.3,78.2,421.1,81.2,418.8,83.2z M406.1,50.7v9.7c0,0.2,0.1,0.3,0.3,0.3
			h2.2c1.4,0,2.5-0.4,3.3-1.3c0.8-0.9,1.2-2.1,1.2-3.8c0-1.7-0.4-3-1.1-3.9c-0.8-0.9-1.9-1.4-3.3-1.4h-2.2
			C406.2,50.4,406.1,50.5,406.1,50.7z M412.4,77.3c0.8-1,1.2-2.4,1.2-4.2c0-1.8-0.4-3.3-1.2-4.3c-0.8-1.1-1.8-1.6-3.2-1.6h-2.8
			c-0.2,0-0.3,0.1-0.3,0.3v11c0,0.2,0.1,0.3,0.3,0.3h2.7C410.5,78.8,411.6,78.3,412.4,77.3z"/>
		<path class="st2" d="M426.7,86.1c-0.1-0.1-0.2-0.3-0.2-0.5V43.7c0-0.2,0.1-0.4,0.2-0.5c0.1-0.1,0.3-0.2,0.5-0.2h7.3
			c0.2,0,0.4,0.1,0.5,0.2c0.1,0.1,0.2,0.3,0.2,0.5v41.9c0,0.2-0.1,0.4-0.2,0.5c-0.1,0.1-0.3,0.2-0.5,0.2h-7.3
			C427.1,86.3,426.9,86.2,426.7,86.1z"/>
		<path class="st2" d="M441,86.1c-0.1-0.1-0.2-0.3-0.2-0.5V43.7c0-0.2,0.1-0.4,0.2-0.5c0.1-0.1,0.3-0.2,0.5-0.2h7.3
			c0.2,0,0.4,0.1,0.5,0.2c0.1,0.1,0.2,0.3,0.2,0.5v34.8c0,0.2,0.1,0.3,0.3,0.3h13c0.2,0,0.4,0.1,0.5,0.2c0.1,0.1,0.2,0.3,0.2,0.5v6
			c0,0.2-0.1,0.4-0.2,0.5c-0.1,0.1-0.3,0.2-0.5,0.2h-21.3C441.3,86.3,441.1,86.2,441,86.1z"/>
		<path class="st2" d="M467.4,86.1c-0.1-0.1-0.2-0.3-0.2-0.5V43.7c0-0.2,0.1-0.4,0.2-0.5c0.1-0.1,0.3-0.2,0.5-0.2h7.3
			c0.2,0,0.4,0.1,0.5,0.2c0.1,0.1,0.2,0.3,0.2,0.5v41.9c0,0.2-0.1,0.4-0.2,0.5c-0.1,0.1-0.3,0.2-0.5,0.2h-7.3
			C467.7,86.3,467.6,86.2,467.4,86.1z"/>
		<path class="st2" d="M506,43.1c0.1,0.1,0.2,0.3,0.2,0.5v6c0,0.2-0.1,0.4-0.2,0.5c-0.1,0.1-0.3,0.2-0.5,0.2h-7.8
			c-0.2,0-0.3,0.1-0.3,0.3v34.8c0,0.2-0.1,0.4-0.2,0.5c-0.1,0.1-0.3,0.2-0.5,0.2h-7.3c-0.2,0-0.4-0.1-0.5-0.2
			c-0.1-0.1-0.2-0.3-0.2-0.5V50.7c0-0.2-0.1-0.3-0.3-0.3H481c-0.2,0-0.4-0.1-0.5-0.2c-0.1-0.1-0.2-0.3-0.2-0.5v-6
			c0-0.2,0.1-0.4,0.2-0.5c0.1-0.1,0.3-0.2,0.5-0.2h24.6C505.7,42.9,505.9,43,506,43.1z"/>
		<path class="st2" d="M518.2,86c-0.1-0.1-0.2-0.3-0.2-0.5V69.4L518,69l-8.7-25.2c0-0.1-0.1-0.2-0.1-0.3c0-0.4,0.2-0.6,0.7-0.6h7.6
			c0.5,0,0.7,0.2,0.9,0.6l3.8,14.8c0,0.1,0.1,0.2,0.2,0.2c0.1,0,0.1-0.1,0.2-0.2l3.8-14.8c0.1-0.4,0.4-0.6,0.9-0.6h7.6
			c0.2,0,0.4,0.1,0.6,0.2c0.1,0.1,0.1,0.4,0.1,0.7L526.8,69l-0.1,0.4v16.1c0,0.2-0.1,0.4-0.2,0.5c-0.1,0.1-0.3,0.2-0.5,0.2h-7.3
			C518.6,86.3,518.4,86.2,518.2,86z"/>
	</g>
	<g>
		<path class="st2" d="M13.6,31.4c2.9,0,5.3-1.9,6.2-4.5h39.4v6.8h-23c-0.1,0-0.2,0-0.2,0c-0.9-2.6-3.3-4.4-6.2-4.4
			c-3.6,0-6.5,2.9-6.5,6.5c0,3.6,2.9,6.5,6.5,6.5c2.9,0,5.4-2,6.2-4.6c0.1,0,0.1,0,0.2,0h23v20.7c0,11.1,9.1,20.2,20.2,20.2
			c11.1,0,20.2-9.1,20.2-20.2V20.2C99.6,9.1,90.6,0,79.4,0c-8.3,0-15.5,5.1-18.6,12.3c-0.2-0.1-0.5-0.2-0.8-0.2h-23
			c-0.8-2.6-3.3-4.5-6.2-4.5c-3.6,0-6.5,2.9-6.5,6.5c0,3.6,2.9,6.5,6.5,6.5c2.9,0,5.3-1.9,6.2-4.5h22.5c-0.3,1.3-0.4,2.6-0.4,4v2.7
			H19.8c-0.8-2.6-3.3-4.5-6.2-4.5c-3.6,0-6.5,2.9-6.5,6.5S10,31.4,13.6,31.4z M29.9,38.3c-1.4,0-2.5-1.1-2.5-2.5
			c0-1.4,1.1-2.5,2.5-2.5c1.4,0,2.5,1.1,2.5,2.5S31.2,38.3,29.9,38.3z M65.3,20.2C65.3,12.4,71.6,6,79.4,6s14.2,6.4,14.2,14.2v1.4
			H82.1c-1.7,0-3,1.3-3,3c0,1.7,1.3,3,3,3h11.6v3.6H82.1c-1.7,0-3,1.3-3,3s1.3,3,3,3h11.6v3.6H82.1c-1.7,0-3,1.3-3,3
			c0,1.7,1.3,3,3,3h11.6v3.6H82.1c-1.7,0-3,1.3-3,3s1.3,3,3,3h11.6v1.8c0,7.8-6.4,14.2-14.2,14.2s-14.2-6.4-14.2-14.2V20.2z
			 M31,16.8c-1.4,0-2.5-1.1-2.5-2.5c0-1.4,1.1-2.5,2.5-2.5s2.5,1.1,2.5,2.5S32.4,16.8,31,16.8z M13.6,22.4c1.4,0,2.5,1.1,2.5,2.5
			c0,1.4-1.1,2.5-2.5,2.5c-1.4,0-2.5-1.1-2.5-2.5C11.1,23.5,12.3,22.4,13.6,22.4z"/>
		<path class="st2" d="M106.2,39.6L106.2,39.6c-1.7,0-3,1.3-3,3v15.7c0,13.1-10.6,23.7-23.7,23.7c-13.1,0-23.7-10.6-23.7-23.7V42.6
			c0-1.7-1.3-3-3-3s-3,1.3-3,3v3l-24.3,0l-12.6-6.1c-0.8-2.7-3.3-4.8-6.3-4.8c-3.6,0-6.5,2.9-6.5,6.5s2.9,6.5,6.5,6.5
			c2.7,0,5-1.6,6-4l11.6,5.6c0.3,0.1,0.6,0.2,0.9,0.2h24.8v4.7H14.5c-1.1-2.1-3.3-3.5-5.8-3.5c-3.6,0-6.5,2.9-6.5,6.5
			c0,3.6,2.9,6.5,6.5,6.5c3.3,0,6-2.4,6.4-5.5h34.5c0,2,0.2,3.9,0.6,5.7h-14c-0.5,0-1,0.2-1.4,0.6l-6.3,6.1
			c-1.1-0.9-2.6-1.5-4.1-1.5c-3.6,0-6.5,2.9-6.5,6.5c0,3.6,2.9,6.5,6.5,6.5s6.5-2.9,6.5-6.5c0-0.5-0.1-1-0.2-1.5l6.4-6.1h14.3
			c3.7,10.7,13.4,18.7,25.1,19.8v15.6h-7.6c-1.7,0-3,1.3-3,3s1.3,3,3,3h21.3c1.7,0,3-1.3,3-3s-1.3-3-3-3l-7.6,0V87.9
			c15-1.5,26.7-14.2,26.7-29.6V42.6C109.2,40.9,107.8,39.6,106.2,39.6z M6.5,43.7c-1.4,0-2.5-1.1-2.5-2.5c0-1.4,1.1-2.5,2.5-2.5
			c1.4,0,2.5,1.1,2.5,2.5C9,42.6,7.9,43.7,6.5,43.7z M8.8,59.8c-1.4,0-2.5-1.1-2.5-2.5c0-1.4,1.1-2.5,2.5-2.5c1.4,0,2.5,1.1,2.5,2.5
			S10.1,59.8,8.8,59.8z M24.4,78.2c-1.4,0-2.5-1.1-2.5-2.5c0-1.4,1.1-2.5,2.5-2.5s2.5,1.1,2.5,2.5S25.7,78.2,24.4,78.2z"/>
	</g>
</g>
</svg>
